<?xml version="1.0" encoding="utf-8"?>
<!-- Generator: Adobe Illustrator 16.0.4, SVG Export Plug-In . SVG Version: 6.00 Build 0)  -->
<!DOCTYPE svg PUBLIC "-//W3C//DTD SVG 1.1//EN" "http://www.w3.org/Graphics/SVG/1.1/DTD/svg11.dtd">
<svg version="1.1" xmlns="http://www.w3.org/2000/svg" xmlns:xlink="http://www.w3.org/1999/xlink" x="0px" y="0px"
	 width="55.324px" height="39px" viewBox="0 0 55.324 39" enable-background="new 0 0 55.324 39" xml:space="preserve">
<g id="Layer_3" display="none">
	<rect x="-17.5" y="-18" display="inline" fill="#006838" width="164.5" height="75"/>
</g>
<g id="Layer_1" display="none">
	<g display="inline">
		<rect x="1.5" fill="none" width="498.5" height="102"/>
		<path fill="#FFFF00" d="M18.684,1.008v16.8h-2.568L6.852,6.432v11.376H3.756v-16.8h2.568l9.264,11.376V1.008H18.684z"/>
		<path fill="#FFFF00" d="M46.475,3.647h-5.568v-2.64h14.256v2.64h-5.568v14.16h-3.12V3.647z"/>
		<path fill="#FFFF00" d="M68.506,17.808l-3.432-4.92c-0.144,0.016-0.36,0.024-0.648,0.024h-3.792v4.896h-3.12v-16.8h6.912
			c1.456,0,2.724,0.24,3.804,0.72c1.08,0.48,1.908,1.168,2.484,2.064c0.576,0.896,0.864,1.96,0.864,3.192
			c0,1.264-0.308,2.352-0.924,3.264c-0.616,0.912-1.5,1.592-2.652,2.04l3.864,5.52H68.506z M67.378,4.512
			c-0.705-0.576-1.736-0.864-3.096-0.864h-3.648v6.696h3.648c1.36,0,2.392-0.292,3.096-0.876c0.704-0.584,1.056-1.412,1.056-2.484
			C68.434,5.912,68.082,5.087,67.378,4.512z"/>
		<path fill="#FFFF00" d="M85.954,13.919h-8.4l-1.656,3.888h-3.216l7.56-16.8h3.072l7.584,16.8h-3.264L85.954,13.919z
			 M84.922,11.472l-3.168-7.344l-3.144,7.344H84.922z"/>
		<path fill="#FFFF00" d="M94.485,17.496c-1.208-0.368-2.164-0.856-2.868-1.464l1.08-2.424c0.688,0.544,1.532,0.988,2.532,1.332
			c1,0.344,2.004,0.516,3.012,0.516c1.248,0,2.18-0.2,2.796-0.6c0.616-0.399,0.924-0.928,0.924-1.584
			c0-0.48-0.172-0.876-0.516-1.188c-0.344-0.312-0.78-0.556-1.308-0.732c-0.528-0.176-1.248-0.375-2.16-0.6
			c-1.28-0.304-2.316-0.608-3.108-0.912c-0.792-0.304-1.472-0.78-2.04-1.428s-0.852-1.524-0.852-2.628
			c0-0.928,0.252-1.772,0.756-2.532c0.504-0.76,1.264-1.364,2.28-1.812c1.016-0.448,2.26-0.672,3.732-0.672
			c1.024,0,2.032,0.128,3.024,0.384c0.992,0.256,1.848,0.624,2.568,1.104l-0.984,2.424c-0.736-0.432-1.504-0.76-2.304-0.984
			c-0.8-0.224-1.576-0.336-2.328-0.336c-1.232,0-2.148,0.208-2.748,0.624c-0.6,0.417-0.9,0.968-0.9,1.656
			c0,0.48,0.172,0.872,0.516,1.176c0.344,0.304,0.78,0.544,1.308,0.72c0.528,0.176,1.248,0.376,2.16,0.6
			c1.248,0.288,2.272,0.588,3.072,0.9c0.8,0.312,1.484,0.788,2.052,1.428c0.568,0.64,0.852,1.504,0.852,2.592
			c0,0.928-0.252,1.768-0.756,2.52s-1.268,1.352-2.292,1.8s-2.272,0.672-3.744,0.672C96.945,18.048,95.693,17.863,94.485,17.496z"/>
		<path fill="#FFFF00" d="M123.057,1.008v16.8h-3.12v-7.2h-8.688v7.2h-3.12v-16.8h3.12v6.936h8.688V1.008H123.057z"/>
	</g>
	
		<circle display="inline" fill="none" stroke="#F7941E" stroke-width="2" stroke-miterlimit="10" cx="29.551" cy="9.531" r="7.433"/>
	
		<line display="inline" fill="none" stroke="#F7941E" stroke-width="2" stroke-miterlimit="10" x1="34.807" y1="4.275" x2="24.295" y2="14.787"/>
	<g display="inline">
	</g>
</g>
<g id="Layer_2">
	<g>
		<rect x="4" y="11" fill="none" width="375" height="56"/>
		<path fill="#F9ED32" d="M16.872,21.036h6.641v8.383c-2.436,1.057-4.852,1.586-7.25,1.586c-3.276,0-5.893-0.956-7.852-2.867
			c-1.959-1.912-2.938-4.27-2.938-7.073c0-2.955,1.015-5.414,3.044-7.377s4.574-2.945,7.632-2.945c1.114,0,2.171,0.121,3.172,0.361
			c1,0.241,2.266,0.682,3.795,1.324v2.889c-2.36-1.369-4.701-2.053-7.023-2.053c-2.162,0-3.984,0.736-5.466,2.209
			s-2.223,3.28-2.223,5.423c0,2.247,0.741,4.083,2.223,5.508s3.389,2.138,5.721,2.138c1.133,0,2.487-0.26,4.064-0.779l0.269-0.085
			v-4.121h-3.809V21.036z"/>
		<path fill="#F9ED32" d="M37.905,10.713c3.056,0,5.601,0.968,7.634,2.903c2.033,1.935,3.049,4.361,3.049,7.278
			s-1.026,5.331-3.078,7.243c-2.052,1.911-4.639,2.867-7.762,2.867c-2.981,0-5.465-0.956-7.451-2.867
			c-1.986-1.912-2.979-4.307-2.979-7.187c0-2.955,1-5.4,3-7.335S34.849,10.713,37.905,10.713z M38.019,13.403
			c-2.264,0-4.124,0.708-5.582,2.124c-1.457,1.416-2.186,3.224-2.186,5.423c0,2.133,0.731,3.908,2.193,5.324
			s3.292,2.124,5.489,2.124c2.207,0,4.048-0.722,5.524-2.167c1.476-1.444,2.214-3.243,2.214-5.395c0-2.096-0.738-3.858-2.214-5.289
			C41.981,14.119,40.168,13.403,38.019,13.403z"/>
	</g>
</g>
<g id="Layer_4">
	<g id="Layer_1_1_">
		<path fill="#006D2C" stroke="#00491A" stroke-miterlimit="10" d="M42.948,10.156c0-2.874-2.33-5.204-5.202-5.204
			c-2.873,0-5.202,2.33-5.202,5.204c0,0.908,0.233,1.761,0.642,2.504h-0.008c0,0,3.534,6.124,3.921,6.793
			c0.387,0.67,0.884,0.67,1.295,0c0.375-0.636,3.92-6.793,3.92-6.793h-0.008C42.715,11.917,42.948,11.064,42.948,10.156z"/>
		<path fill="none" stroke="#A6FC00" stroke-miterlimit="10" d="M42.719,10.178c0-2.763-2.228-5.004-4.975-5.004
			c-2.748,0-4.975,2.241-4.975,5.004c0,0.874,0.223,1.694,0.614,2.409h-0.008c0,0,3.374,5.893,3.75,6.534
			c0.491,0.836,0.741,0.836,1.237,0c0.363-0.61,3.75-6.534,3.75-6.534h-0.008C42.497,11.872,42.719,11.052,42.719,10.178z"/>
	</g>
	<g id="Layer_5">
		<circle fill="#39B54A" cx="37.746" cy="10.288" r="3.231"/>
		<circle fill="#FFFFFF" stroke="#A6FC00" stroke-width="3" stroke-miterlimit="10" cx="37.747" cy="10.289" r="0.943"/>
	</g>
	<g>
	</g>
	<g>
	</g>
	<g>
	</g>
	<g>
	</g>
	<g>
	</g>
	<g>
	</g>
</g>
</svg>
