<?xml version="1.0" encoding="utf-8"?>
<!-- Generator: Adobe Illustrator 16.0.4, SVG Export Plug-In . SVG Version: 6.00 Build 0)  -->
<!DOCTYPE svg PUBLIC "-//W3C//DTD SVG 1.1//EN" "http://www.w3.org/Graphics/SVG/1.1/DTD/svg11.dtd">
<svg version="1.1" xmlns="http://www.w3.org/2000/svg" xmlns:xlink="http://www.w3.org/1999/xlink" x="0px" y="0px" width="130px"
	 height="39px" viewBox="0 0 130 39" enable-background="new 0 0 130 39" xml:space="preserve">
<g id="Layer_3" display="none">
	<rect x="-17.5" y="-18" display="inline" fill="#006838" width="164.5" height="75"/>
</g>
<g id="Layer_1" display="none">
	<g display="inline">
		<rect x="1.5" fill="none" width="498.5" height="102"/>
		<path fill="#FFFF00" d="M18.684,1.008v16.8h-2.568L6.852,6.432v11.376H3.756v-16.8h2.568l9.264,11.376V1.008H18.684z"/>
		<path fill="#FFFF00" d="M46.475,3.647h-5.568v-2.64h14.256v2.64h-5.568v14.16h-3.12V3.647z"/>
		<path fill="#FFFF00" d="M68.506,17.808l-3.432-4.92c-0.144,0.016-0.36,0.024-0.648,0.024h-3.792v4.896h-3.12v-16.8h6.912
			c1.456,0,2.724,0.24,3.804,0.72c1.08,0.48,1.908,1.168,2.484,2.064c0.576,0.896,0.864,1.96,0.864,3.192
			c0,1.264-0.308,2.352-0.924,3.264c-0.616,0.912-1.5,1.592-2.652,2.04l3.864,5.52H68.506z M67.378,4.512
			c-0.705-0.576-1.736-0.864-3.096-0.864h-3.648v6.696h3.648c1.36,0,2.392-0.292,3.096-0.876c0.704-0.584,1.056-1.412,1.056-2.484
			C68.434,5.912,68.082,5.087,67.378,4.512z"/>
		<path fill="#FFFF00" d="M85.954,13.919h-8.4l-1.656,3.888h-3.216l7.56-16.8h3.072l7.584,16.8h-3.264L85.954,13.919z
			 M84.922,11.472l-3.168-7.344l-3.144,7.344H84.922z"/>
		<path fill="#FFFF00" d="M94.485,17.496c-1.208-0.368-2.164-0.856-2.868-1.464l1.08-2.424c0.688,0.544,1.532,0.988,2.532,1.332
			c1,0.344,2.004,0.516,3.012,0.516c1.248,0,2.18-0.2,2.796-0.6c0.616-0.399,0.924-0.928,0.924-1.584
			c0-0.48-0.172-0.876-0.516-1.188c-0.344-0.312-0.78-0.556-1.308-0.732c-0.528-0.176-1.248-0.375-2.16-0.6
			c-1.28-0.304-2.316-0.608-3.108-0.912c-0.792-0.304-1.472-0.78-2.04-1.428s-0.852-1.524-0.852-2.628
			c0-0.928,0.252-1.772,0.756-2.532c0.504-0.76,1.264-1.364,2.28-1.812c1.016-0.448,2.26-0.672,3.732-0.672
			c1.024,0,2.032,0.128,3.024,0.384c0.992,0.256,1.848,0.624,2.568,1.104l-0.984,2.424c-0.736-0.432-1.504-0.76-2.304-0.984
			c-0.8-0.224-1.576-0.336-2.328-0.336c-1.232,0-2.148,0.208-2.748,0.624c-0.6,0.417-0.9,0.968-0.9,1.656
			c0,0.48,0.172,0.872,0.516,1.176c0.344,0.304,0.78,0.544,1.308,0.72c0.528,0.176,1.248,0.376,2.16,0.6
			c1.248,0.288,2.272,0.588,3.072,0.9c0.8,0.312,1.484,0.788,2.052,1.428c0.568,0.64,0.852,1.504,0.852,2.592
			c0,0.928-0.252,1.768-0.756,2.52s-1.268,1.352-2.292,1.8s-2.272,0.672-3.744,0.672C96.945,18.048,95.693,17.863,94.485,17.496z"/>
		<path fill="#FFFF00" d="M123.057,1.008v16.8h-3.12v-7.2h-8.688v7.2h-3.12v-16.8h3.12v6.936h8.688V1.008H123.057z"/>
	</g>
	
		<circle display="inline" fill="none" stroke="#F7941E" stroke-width="2" stroke-miterlimit="10" cx="29.551" cy="9.531" r="7.433"/>
	
		<line display="inline" fill="none" stroke="#F7941E" stroke-width="2" stroke-miterlimit="10" x1="34.807" y1="4.275" x2="24.295" y2="14.787"/>
	<g display="inline">
	</g>
</g>
<g id="Layer_2">
	<g>
		<rect x="4" y="11" fill="none" width="375" height="56"/>
		<path fill="#8DC63F" d="M16.872,21.036h6.641v8.383c-2.436,1.057-4.852,1.586-7.25,1.586c-3.276,0-5.893-0.956-7.852-2.867
			c-1.959-1.912-2.938-4.27-2.938-7.073c0-2.955,1.015-5.414,3.044-7.377s4.574-2.945,7.632-2.945c1.114,0,2.171,0.121,3.172,0.361
			c1,0.241,2.266,0.682,3.795,1.324v2.889c-2.36-1.369-4.701-2.053-7.023-2.053c-2.162,0-3.984,0.736-5.466,2.209
			s-2.223,3.28-2.223,5.423c0,2.247,0.741,4.083,2.223,5.508s3.389,2.138,5.721,2.138c1.133,0,2.487-0.26,4.064-0.779l0.269-0.085
			v-4.121h-3.809V21.036z"/>
		<path fill="#8DC63F" d="M30.055,17.75v2.988l0.142-0.227c1.246-2.011,2.492-3.016,3.738-3.016c0.972,0,1.987,0.491,3.044,1.473
			l-1.359,2.266c-0.897-0.85-1.728-1.274-2.492-1.274c-0.831,0-1.55,0.396-2.16,1.189c-0.608,0.793-0.913,1.732-0.913,2.818v6.811
			h-2.591V17.75H30.055z"/>
		<path fill="#8DC63F" d="M49.298,24.491h-9.162c0.066,1.246,0.484,2.237,1.253,2.974c0.77,0.736,1.763,1.104,2.981,1.104
			c1.699,0,3.266-0.529,4.701-1.586v2.521c-0.793,0.529-1.579,0.906-2.358,1.133c-0.778,0.227-1.692,0.34-2.74,0.34
			c-1.435,0-2.596-0.297-3.483-0.892s-1.598-1.395-2.131-2.4c-0.533-1.006-0.8-2.169-0.8-3.491c0-1.982,0.562-3.594,1.685-4.835
			c1.124-1.242,2.582-1.862,4.375-1.862c1.728,0,3.106,0.604,4.135,1.812s1.543,2.827,1.543,4.857V24.491z M40.193,22.947h6.556
			c-0.066-1.029-0.373-1.822-0.92-2.379s-1.284-0.835-2.209-0.835s-1.683,0.278-2.272,0.835
			C40.757,21.125,40.373,21.918,40.193,22.947z"/>
		<path fill="#8DC63F" d="M63.189,24.491h-9.162c0.066,1.246,0.484,2.237,1.253,2.974c0.77,0.736,1.763,1.104,2.981,1.104
			c1.699,0,3.266-0.529,4.701-1.586v2.521c-0.793,0.529-1.579,0.906-2.358,1.133c-0.778,0.227-1.692,0.34-2.74,0.34
			c-1.435,0-2.596-0.297-3.483-0.892s-1.598-1.395-2.131-2.4c-0.533-1.006-0.8-2.169-0.8-3.491c0-1.982,0.562-3.594,1.685-4.835
			c1.124-1.242,2.582-1.862,4.375-1.862c1.728,0,3.106,0.604,4.135,1.812s1.543,2.827,1.543,4.857V24.491z M54.084,22.947h6.556
			c-0.066-1.029-0.373-1.822-0.92-2.379s-1.284-0.835-2.209-0.835s-1.683,0.278-2.272,0.835
			C54.648,21.125,54.264,21.918,54.084,22.947z"/>
		<path fill="#8DC63F" d="M68.556,17.75v1.657c1.152-1.274,2.459-1.912,3.922-1.912c0.812,0,1.567,0.21,2.266,0.63
			c0.699,0.42,1.229,0.996,1.593,1.728c0.364,0.732,0.545,1.891,0.545,3.477v7.448h-2.577v-7.42c0-1.331-0.203-2.282-0.609-2.854
			c-0.406-0.571-1.085-0.856-2.039-0.856c-1.218,0-2.251,0.609-3.101,1.827v9.303h-2.634V17.75H68.556z"/>
		<path fill="#F9ED32" d="M91.524,21.036h6.641v8.383c-2.436,1.057-4.852,1.586-7.25,1.586c-3.276,0-5.893-0.956-7.852-2.867
			c-1.959-1.912-2.938-4.27-2.938-7.073c0-2.955,1.015-5.414,3.044-7.377s4.574-2.945,7.632-2.945c1.114,0,2.171,0.121,3.172,0.361
			c1,0.241,2.266,0.682,3.795,1.324v2.889c-2.36-1.369-4.701-2.053-7.023-2.053c-2.162,0-3.984,0.736-5.466,2.209
			s-2.223,3.28-2.223,5.423c0,2.247,0.741,4.083,2.223,5.508s3.389,2.138,5.721,2.138c1.133,0,2.487-0.26,4.064-0.779l0.269-0.085
			v-4.121h-3.809V21.036z"/>
		<path fill="#F9ED32" d="M112.935,10.713c3.056,0,5.601,0.968,7.634,2.903c2.033,1.935,3.049,4.361,3.049,7.278
			s-1.026,5.331-3.078,7.243c-2.052,1.911-4.639,2.867-7.762,2.867c-2.981,0-5.465-0.956-7.451-2.867
			c-1.986-1.912-2.979-4.307-2.979-7.187c0-2.955,1-5.4,3-7.335S109.878,10.713,112.935,10.713z M113.048,13.403
			c-2.264,0-4.124,0.708-5.582,2.124c-1.457,1.416-2.186,3.224-2.186,5.423c0,2.133,0.731,3.908,2.193,5.324
			s3.292,2.124,5.489,2.124c2.207,0,4.048-0.722,5.524-2.167c1.476-1.444,2.214-3.243,2.214-5.395c0-2.096-0.738-3.858-2.214-5.289
			C117.011,14.119,115.198,13.403,113.048,13.403z"/>
	</g>
	<g>
	</g>
	<g>
	</g>
	<g>
	</g>
	<g>
	</g>
	<g>
	</g>
	<g>
	</g>
</g>
</svg>
