<?xml version="1.0" encoding="utf-8"?>
<!-- Generator: Adobe Illustrator 16.0.4, SVG Export Plug-In . SVG Version: 6.00 Build 0)  -->
<!DOCTYPE svg PUBLIC "-//W3C//DTD SVG 1.1//EN" "http://www.w3.org/Graphics/SVG/1.1/DTD/svg11.dtd">
<svg version="1.1" xmlns="http://www.w3.org/2000/svg" xmlns:xlink="http://www.w3.org/1999/xlink" x="0px" y="0px" width="60px"
	 height="100px" viewBox="0 0 60 100" enable-background="new 0 0 60 100" xml:space="preserve">
<g id="Layer_1">
	<path fill="#006D2C" stroke="#00491A" stroke-miterlimit="10" d="M55.199,40.41c0-13.921-11.283-25.206-25.199-25.206
		c-13.917,0-25.199,11.285-25.199,25.206c0,4.399,1.129,8.533,3.109,12.133H7.872c0,0,17.121,29.661,18.995,32.906
		c1.873,3.246,4.284,3.246,6.27,0c1.819-3.079,18.995-32.906,18.995-32.906H52.09C54.07,48.943,55.199,44.809,55.199,40.41z"/>
	<path fill="none" stroke="#A6FC00" stroke-miterlimit="10" d="M54.091,40.52c0-13.387-10.791-24.24-24.1-24.24
		S5.893,27.132,5.893,40.52c0,4.23,1.08,8.206,2.974,11.668H8.83c0,0,16.342,28.542,18.166,31.646c2.38,4.051,3.588,4.051,5.996,0
		c1.756-2.954,18.166-31.646,18.166-31.646h-0.04C53.011,48.726,54.091,44.75,54.091,40.52z"/>
</g>
<g id="Layer_2" display="none">
	<path display="inline" fill="#FEFEFE" d="M26.009,59.88c-0.001,0.013-0.003,0.025-0.004,0.038c0.259,0,0.519-0.005,0.777,0.001
		c0.808,0.018,1.616,0.038,2.423,0.062c0.884,0.025,1.768,0.043,2.65,0.089c0.633,0.033,1.262,0.12,1.893,0.159
		c0.768,0.048,1.537,0.083,2.309,0.102c0.748,0.018,1.494-0.02,2.225-0.223c0.402-0.111,0.789-0.26,1.014-0.632
		c0.525-0.873,1.029-1.759,1.545-2.638c0.756-1.286,1.514-2.57,2.27-3.855c0.4-0.681,0.801-1.36,1.207-2.054
		c-2.738-1.61-5.467-3.215-8.193-4.82c-0.016,0.013-0.031,0.019-0.037,0.03c-0.734,1.254-1.465,2.51-2.201,3.763
		c-1.199,2.043-2.402,4.082-3.601,6.125c-0.488,0.832-1.001,1.644-1.703,2.317c-0.477,0.456-0.986,0.864-1.592,1.136
		C26.667,59.625,26.336,59.748,26.009,59.88z"/>
	<path display="inline" fill="#FEFEFE" d="M24.598,22.926c-0.016,0.005-0.031,0.01-0.046,0.016c0,1.014,0,2.028,0,3.044
		c-0.624,0-1.228,0.004-1.829-0.001c-0.651-0.005-1.302-0.018-1.953-0.028c-0.289-0.004-0.58-0.032-0.866-0.008
		c-0.496,0.041-0.881,0.32-1.223,0.654c-0.536,0.521-0.965,1.13-1.364,1.757c-0.79,1.241-1.581,2.483-2.329,3.75
		c-0.981,1.664-1.922,3.351-2.876,5.029c-0.117,0.205-0.212,0.422-0.317,0.634c0.067-0.007,0.096-0.035,0.12-0.068
		c0.761-1.041,1.717-1.835,2.912-2.341c0.901-0.381,1.84-0.578,2.813-0.586c1.068-0.01,2.136,0.014,3.204,0.019
		c0.957,0.004,1.915,0.001,2.872,0.006c0.237,0.001,0.475,0.025,0.701,0.038c0,0.966,0,1.917,0,2.912
		c0.188-0.26,0.355-0.489,0.521-0.72c0.716-1.002,1.429-2.006,2.147-3.006c0.868-1.207,1.743-2.409,2.609-3.618
		c0.035-0.048,0.039-0.158,0.007-0.207c-0.19-0.293-0.396-0.577-0.598-0.864c-0.487-0.693-0.976-1.386-1.464-2.079
		c-0.432-0.613-0.865-1.225-1.295-1.839c-0.354-0.504-0.701-1.011-1.054-1.515C25.061,23.576,24.829,23.251,24.598,22.926z"/>
	<path display="inline" fill="#FEFEFE" d="M47.957,44.962c0.01-0.04,0.012-0.069,0.025-0.092c0.514-0.873,1.031-1.744,1.545-2.617
		c0.266-0.451,0.547-0.895,0.783-1.36c0.25-0.488,0.213-1.013,0.104-1.535c-0.207-1.002-0.662-1.906-1.15-2.79
		c-0.357-0.644-0.766-1.259-1.162-1.879c-0.422-0.657-0.869-1.298-1.287-1.958c-0.535-0.841-1.074-1.682-1.572-2.545
		c-0.436-0.754-0.879-1.498-1.42-2.182c-0.021-0.029-0.059-0.047-0.104-0.081c0,0.048-0.006,0.071,0.002,0.088
		c0.482,1.056,0.73,2.169,0.77,3.325c0.035,0.995-0.09,1.974-0.539,2.874c-0.352,0.699-0.76,1.369-1.154,2.046
		c-0.605,1.04-1.219,2.074-1.828,3.11c-0.209,0.355-0.42,0.709-0.635,1.073c-0.834-0.506-1.652-1.004-2.523-1.533
		c0.156,0.322,0.283,0.591,0.418,0.855c0.402,0.788,0.807,1.573,1.211,2.359c0.363,0.707,0.73,1.413,1.09,2.121
		c0.326,0.643,0.645,1.291,0.969,1.935c0.088,0.173,0.162,0.37,0.295,0.498c0.076,0.072,0.264,0.029,0.4,0.033
		c0.105,0.003,0.211,0.002,0.316,0c0.975-0.023,1.951-0.05,2.926-0.07c0.629-0.013,1.256-0.012,1.883-0.024
		c0.645-0.013,1.287-0.04,1.932-0.052c0.441-0.008,0.883-0.001,1.326-0.001c0.002-0.017,0.006-0.034,0.008-0.051
		C49.713,45.996,48.84,45.482,47.957,44.962z"/>
	<path display="inline" fill="#FEFEFE" d="M23.672,45.061c-0.027-0.081-0.045-0.158-0.078-0.228
		c-0.272-0.568-0.551-1.132-0.822-1.701c-0.496-1.041-0.991-2.082-1.483-3.125c-0.41-0.869-0.813-1.742-1.224-2.61
		c-0.322-0.681-0.649-1.359-0.98-2.036c-0.021-0.042-0.101-0.076-0.154-0.078c-0.292-0.007-0.585-0.017-0.876,0
		c-0.546,0.032-1.097,0.046-1.635,0.133c-0.916,0.149-1.763,0.515-2.513,1.052c-0.491,0.352-0.936,0.78-1.356,1.217
		c-0.283,0.295-0.538,0.642-0.714,1.009c-0.175,0.365-0.251,0.781-0.342,1.181c-0.089,0.393-0.093,0.788,0.111,1.16
		c0.184,0.334,0.361,0.672,0.538,1.01c0.486,0.93,0.968,1.862,1.457,2.791c0.36,0.684,0.729,1.362,1.091,2.044
		c0.453,0.855,0.902,1.713,1.358,2.581C18.599,47.989,21.139,46.523,23.672,45.061z"/>
	<path display="inline" fill="#FEFEFE" d="M31.82,35.027c0.637,0,1.24,0.012,1.844-0.002c0.904-0.021,1.807-0.063,2.709-0.093
		c0.701-0.023,1.402-0.037,2.104-0.062c0.557-0.02,1.115-0.054,1.674-0.073c0.965-0.033,1.932-0.055,2.896-0.094
		c0.084-0.004,0.201-0.082,0.242-0.159c0.547-1.032,0.725-2.15,0.652-3.298c-0.041-0.646-0.176-1.291-0.316-1.926
		c-0.217-0.978-0.648-1.837-1.498-2.434c-0.35-0.246-0.709-0.481-1.146-0.505c-0.867-0.046-1.736-0.06-2.604-0.097
		c-0.799-0.034-1.598-0.086-2.396-0.122c-1.076-0.048-2.15-0.088-3.227-0.133c-0.318-0.014-0.637-0.033-0.934-0.048
		C31.82,29.034,31.82,32.046,31.82,35.027z"/>
	<path display="inline" fill="#FEFEFE" d="M30.205,48.986c-1.036-0.06-2.016-0.118-2.995-0.169c-0.92-0.049-1.839-0.088-2.758-0.136
		c-0.924-0.049-1.846-0.103-2.769-0.159c-0.133-0.008-0.217,0.017-0.287,0.151c-0.22,0.423-0.461,0.833-0.693,1.249
		c-0.549,0.982-1.097,1.966-1.647,2.948c-0.449,0.802-0.9,1.602-1.349,2.404c-0.17,0.304-0.334,0.61-0.525,0.961
		c0.948-0.509,1.847-0.991,2.729-1.465c0.113,0.292,0.217,0.567,0.326,0.842c0.309,0.776,0.789,1.445,1.384,2.016
		c0.67,0.643,1.457,1.124,2.354,1.392c0.57,0.17,1.156,0.282,1.746,0.089c0.336-0.11,0.666-0.242,0.988-0.392
		c0.865-0.4,1.578-0.996,2.175-1.736c0.817-1.013,1.353-2.2,2.081-3.32c-0.213,0.111-0.379,0.199-0.547,0.286
		c-0.367,0.192-0.734,0.23-1.123,0.042c-0.392-0.189-0.635-0.521-0.775-0.89c-0.335-0.871-0.611-1.763-0.912-2.649
		C28.494,49.951,29.328,49.481,30.205,48.986z"/>
	<path display="inline" fill-rule="evenodd" clip-rule="evenodd" fill="#A6FC00" d="M26.009,59.88
		c0.327-0.132,0.658-0.255,0.979-0.399c0.605-0.271,1.115-0.68,1.592-1.136c0.702-0.674,1.215-1.485,1.703-2.317
		c1.199-2.043,2.402-4.082,3.601-6.125c0.736-1.253,1.467-2.509,2.201-3.763c0.006-0.011,0.021-0.018,0.037-0.03
		c2.727,1.604,5.455,3.209,8.193,4.82c-0.406,0.693-0.807,1.373-1.207,2.054c-0.756,1.285-1.514,2.569-2.27,3.855
		c-0.516,0.879-1.02,1.765-1.545,2.638c-0.225,0.372-0.611,0.521-1.014,0.632c-0.73,0.203-1.477,0.24-2.225,0.223
		c-0.771-0.019-1.541-0.054-2.309-0.102c-0.631-0.039-1.26-0.126-1.893-0.159c-0.882-0.046-1.766-0.063-2.65-0.089
		c-0.807-0.023-1.615-0.044-2.423-0.062c-0.259-0.006-0.519-0.001-0.777-0.001C26.006,59.905,26.008,59.893,26.009,59.88z"/>
	<path display="inline" fill-rule="evenodd" clip-rule="evenodd" fill="#A6FC00" d="M24.598,22.926
		c0.23,0.326,0.463,0.65,0.692,0.977c0.353,0.504,0.7,1.011,1.054,1.515c0.43,0.614,0.863,1.227,1.295,1.839
		c0.488,0.693,0.977,1.386,1.464,2.079c0.202,0.287,0.407,0.57,0.598,0.864c0.032,0.049,0.028,0.159-0.007,0.207
		c-0.866,1.208-1.741,2.411-2.609,3.618c-0.719,1-1.432,2.004-2.147,3.006c-0.165,0.231-0.332,0.46-0.521,0.72
		c0-0.995,0-1.946,0-2.912c-0.227-0.013-0.464-0.036-0.701-0.038c-0.957-0.005-1.915-0.002-2.872-0.006
		c-1.068-0.005-2.136-0.028-3.204-0.019c-0.974,0.009-1.912,0.206-2.813,0.586c-1.194,0.505-2.151,1.3-2.912,2.341
		c-0.024,0.033-0.053,0.061-0.12,0.068c0.105-0.211,0.201-0.429,0.317-0.634c0.955-1.679,1.895-3.366,2.876-5.029
		c0.748-1.267,1.539-2.508,2.329-3.75c0.398-0.626,0.828-1.235,1.364-1.757c0.342-0.333,0.728-0.613,1.223-0.654
		c0.287-0.023,0.577,0.004,0.866,0.008c0.651,0.01,1.302,0.023,1.953,0.028c0.602,0.005,1.205,0.001,1.829,0.001
		c0-1.016,0-2.03,0-3.044C24.567,22.936,24.583,22.931,24.598,22.926z"/>
	<g display="inline">
		<path fill-rule="evenodd" clip-rule="evenodd" fill="#A6FC00" d="M47.957,44.962c0.883,0.521,1.756,1.034,2.627,1.548
			c-0.002,0.017-0.006,0.034-0.008,0.051c-0.443,0-0.885-0.007-1.326,0.001c-0.645,0.012-1.287,0.039-1.932,0.052
			c-0.627,0.012-1.254,0.011-1.883,0.024c-0.975,0.02-1.951,0.046-2.926,0.07c-0.105,0.002-0.211,0.004-0.316,0
			c-0.137-0.004-0.324,0.039-0.4-0.033c-0.133-0.128-0.207-0.325-0.295-0.498c-0.324-0.644-0.643-1.292-0.969-1.935
			c-0.359-0.708-0.727-1.414-1.09-2.121c-0.404-0.786-0.809-1.572-1.211-2.359c-0.135-0.264-0.262-0.533-0.418-0.855
			c0.871,0.529,1.689,1.026,2.523,1.533c0.215-0.364,0.426-0.718,0.635-1.073c0.609-1.036,1.223-2.07,1.828-3.11
			c0.395-0.677,0.803-1.347,1.154-2.046c0.449-0.899,0.574-1.879,0.539-2.874c-0.039-1.155-0.287-2.269-0.77-3.325
			c-0.008-0.017-0.002-0.04-0.002-0.088c0.045,0.034,0.082,0.052,0.104,0.081c0.541,0.684,0.984,1.428,1.42,2.182
			c0.498,0.863,1.037,1.704,1.572,2.545c0.418,0.659,0.865,1.3,1.287,1.958c0.396,0.62,0.805,1.235,1.162,1.879
			c0.488,0.884,0.943,1.788,1.15,2.79c0.109,0.522,0.146,1.047-0.104,1.535c-0.236,0.465-0.518,0.909-0.783,1.36
			c-0.514,0.873-1.031,1.744-1.545,2.617C47.969,44.893,47.967,44.922,47.957,44.962z"/>
	</g>
	<path display="inline" fill-rule="evenodd" clip-rule="evenodd" fill="#A6FC00" d="M23.672,45.061
		c-2.533,1.462-5.074,2.929-7.623,4.401c-0.457-0.868-0.905-1.726-1.358-2.581c-0.361-0.683-0.731-1.361-1.091-2.044
		c-0.489-0.929-0.971-1.861-1.457-2.791c-0.177-0.338-0.354-0.676-0.538-1.01c-0.205-0.372-0.2-0.767-0.111-1.16
		c0.091-0.4,0.167-0.816,0.342-1.181c0.176-0.368,0.431-0.714,0.714-1.009c0.42-0.437,0.865-0.865,1.356-1.217
		c0.75-0.537,1.597-0.903,2.513-1.052c0.538-0.087,1.089-0.101,1.635-0.133c0.291-0.017,0.584-0.007,0.876,0
		c0.053,0.001,0.133,0.036,0.154,0.078c0.332,0.676,0.659,1.354,0.98,2.036c0.411,0.869,0.813,1.742,1.224,2.61
		c0.492,1.043,0.987,2.084,1.483,3.125c0.271,0.568,0.55,1.133,0.822,1.701C23.627,44.902,23.645,44.98,23.672,45.061z"/>
	<path display="inline" fill-rule="evenodd" clip-rule="evenodd" fill="#A6FC00" d="M31.82,35.027c0-2.981,0-5.993,0-9.045
		c0.297,0.015,0.615,0.034,0.934,0.048c1.076,0.045,2.15,0.085,3.227,0.133c0.799,0.036,1.598,0.087,2.396,0.122
		c0.867,0.037,1.736,0.051,2.604,0.097c0.438,0.023,0.797,0.259,1.146,0.505c0.85,0.597,1.281,1.456,1.498,2.434
		c0.141,0.635,0.275,1.279,0.316,1.926c0.072,1.148-0.105,2.266-0.652,3.298c-0.041,0.077-0.158,0.155-0.242,0.159
		c-0.965,0.039-1.932,0.061-2.896,0.094c-0.559,0.019-1.117,0.053-1.674,0.073c-0.701,0.024-1.402,0.039-2.104,0.062
		c-0.902,0.03-1.805,0.072-2.709,0.093C33.061,35.039,32.457,35.027,31.82,35.027z"/>
	<path display="inline" fill-rule="evenodd" clip-rule="evenodd" fill="#A6FC00" d="M30.205,48.986
		c-0.877,0.495-1.711,0.965-2.597,1.464c0.301,0.887,0.577,1.778,0.912,2.649c0.141,0.368,0.384,0.7,0.775,0.89
		c0.389,0.188,0.756,0.15,1.123-0.042c0.168-0.087,0.334-0.175,0.547-0.286c-0.729,1.12-1.264,2.308-2.081,3.32
		c-0.597,0.74-1.31,1.336-2.175,1.736c-0.322,0.149-0.652,0.281-0.988,0.392c-0.59,0.193-1.176,0.081-1.746-0.089
		c-0.897-0.268-1.684-0.749-2.354-1.392c-0.595-0.57-1.075-1.239-1.384-2.016c-0.109-0.274-0.213-0.55-0.326-0.842
		c-0.882,0.474-1.781,0.956-2.729,1.465c0.191-0.351,0.355-0.657,0.525-0.961c0.448-0.803,0.9-1.603,1.349-2.404
		c0.55-0.982,1.098-1.966,1.647-2.948c0.232-0.416,0.473-0.826,0.693-1.249c0.07-0.135,0.154-0.159,0.287-0.151
		c0.923,0.057,1.845,0.11,2.769,0.159c0.919,0.048,1.838,0.087,2.758,0.136C28.189,48.868,29.168,48.927,30.205,48.986z"/>
</g>
<g id="Layer_3" display="none">
	<g display="inline">
		<g>
			<path fill-rule="evenodd" clip-rule="evenodd" fill="#A6FC00" d="M38.12,31.348c0.726-0.43,1.434-0.849,2.166-1.281
				c0,2.585,0,5.142,0,7.733c-2.146-1.286-4.279-2.566-6.446-3.865c0.69-0.421,1.36-0.829,2.045-1.246
				c-0.027-0.059-0.051-0.114-0.08-0.165c-1.308-2.212-2.614-4.427-3.932-6.635c-0.186-0.309-0.402-0.608-0.648-0.871
				c-0.792-0.834-1.724-0.82-2.484,0.044c-0.276,0.312-0.509,0.667-0.723,1.025c-1.155,1.939-2.3,3.882-3.449,5.826
				c-0.027,0.047-0.059,0.093-0.099,0.159c-0.749-0.427-1.489-0.85-2.245-1.281c0.026-0.054,0.046-0.103,0.074-0.149
				c1.208-2.037,2.416-4.072,3.624-6.109c0.376-0.636,0.834-1.208,1.405-1.683c1.68-1.396,3.8-1.364,5.446,0.078
				c0.513,0.451,0.938,0.979,1.285,1.566c1.303,2.199,2.604,4.401,3.908,6.599C38.013,31.173,38.061,31.25,38.12,31.348z"/>
			<path fill-rule="evenodd" clip-rule="evenodd" fill="#A6FC00" d="M22.169,33.412c0,2.592,0,5.149,0,7.741
				c-0.772-0.459-1.526-0.91-2.296-1.368c-0.286,0.487-0.568,0.967-0.849,1.448c-0.877,1.494-1.756,2.987-2.631,4.481
				c-0.252,0.431-0.479,0.868-0.57,1.364c-0.14,0.754,0.15,1.354,0.871,1.606c0.421,0.148,0.884,0.247,1.328,0.251
				c2.616,0.023,5.232,0.012,7.85,0.014c0.076,0,0.151,0,0.242,0c0,0.857,0,1.707,0,2.579c-0.062,0-0.121,0-0.182,0
				c-2.574,0-5.149-0.001-7.724,0c-1.056,0.001-2.076-0.172-3.007-0.694c-1.434-0.799-2.154-2.269-1.941-3.896
				c0.112-0.874,0.419-1.674,0.863-2.428c1.187-2.009,2.37-4.02,3.569-6.054c-0.646-0.384-1.292-0.768-1.974-1.174
				C17.872,35.99,20.004,34.71,22.169,33.412z"/>
			<path fill-rule="evenodd" clip-rule="evenodd" fill="#A6FC00" d="M35.17,51.528c0,0.867,0,1.701,0,2.584
				c-2.167-1.3-4.3-2.58-6.458-3.874c2.155-1.293,4.291-2.573,6.458-3.872c0,0.877,0,1.72,0,2.583c0.09,0,0.158,0,0.226,0
				c2.12,0,4.24,0,6.36,0c0.492,0,0.979-0.039,1.444-0.208c0.845-0.306,1.199-0.941,0.95-1.803c-0.123-0.423-0.316-0.837-0.54-1.217
				c-0.958-1.625-1.94-3.236-2.913-4.853c-0.036-0.06-0.066-0.12-0.11-0.198c0.721-0.441,1.433-0.877,2.166-1.325
				c0.045,0.067,0.088,0.128,0.124,0.191c0.977,1.597,1.961,3.19,2.92,4.799c0.558,0.932,0.974,1.922,0.981,3.035
				c0.013,1.748-0.885,3.073-2.508,3.725c-0.804,0.321-1.643,0.436-2.503,0.435c-2.113-0.005-4.228-0.001-6.34-0.001
				C35.353,51.528,35.276,51.528,35.17,51.528z"/>
		</g>
	</g>
</g>
<g id="Layer_4" display="none">
	
		<circle display="inline" fill-rule="evenodd" clip-rule="evenodd" fill="none" stroke="#A6FC00" stroke-width="5" stroke-miterlimit="10" cx="30.418" cy="41.084" r="14.232"/>
	
		<polyline display="inline" fill-rule="evenodd" clip-rule="evenodd" fill="none" stroke="#006D2C" stroke-width="2" stroke-miterlimit="10" points="
		20.35,45.007 16.263,42.208 13.464,46.294 	"/>
	
		<polyline display="inline" fill-rule="evenodd" clip-rule="evenodd" fill="none" stroke="#006D2C" stroke-width="2" stroke-miterlimit="10" points="
		38.318,48.326 37.631,53.23 42.535,53.918 	"/>
	
		<polyline display="inline" fill-rule="evenodd" clip-rule="evenodd" fill="none" stroke="#006D2C" stroke-width="2" stroke-miterlimit="10" points="
		33.559,30.776 38.264,29.234 36.72,24.528 	"/>
</g>
<g id="Layer_5">
	<circle fill-rule="evenodd" clip-rule="evenodd" fill="#39B54A" cx="30" cy="41.083" r="15.651"/>
	
		<circle fill-rule="evenodd" clip-rule="evenodd" fill="#FFFFFF" stroke="#A6FC00" stroke-width="3" stroke-miterlimit="10" cx="30.001" cy="41.084" r="4.57"/>
</g>
</svg>
